PathFileType	4	(X/Y/Z)	46_1_12_p1_0-212.trc
DataRate	CameraRate	NumFrames	NumMarkers	Units	OrigDataRate	OrigDataStartFrame	OrigNumFrames
48.0	48.0	6	27	m	48.0	133	213
Frame#	Time	RHip			RKnee			RAnkle			RBigToe			RSmallToe			RHeel			LHip			LKnee			LAnkle			LBigToe			LSmallToe			LHeel			Neck			Head			Nose			RShoulder			RElbow			RWrist			RThumb			RIndex			RPinky			LShoulder			LElbow			LWrist			LThumb			LIndex			LPinky			
		X1	Y1	Z1	X2	Y2	Z2	X3	Y3	Z3	X4	Y4	Z4	X5	Y5	Z5	X6	Y6	Z6	X7	Y7	Z7	X8	Y8	Z8	X9	Y9	Z9	X10	Y10	Z10	X11	Y11	Z11	X12	Y12	Z12	X13	Y13	Z13	X14	Y14	Z14	X15	Y15	Z15	X16	Y16	Z16	X17	Y17	Z17	X18	Y18	Z18	X19	Y19	Z19	X20	Y20	Z20	X21	Y21	Z21	X22	Y22	Z22	X23	Y23	Z23	X24	Y24	Z24	X25	Y25	Z25	X26	Y26	Z26	X27	Y27	Z27	
133	2.7708333333333335	0.37772208136588425	0.45722366824913996	0.642874383784876	0.3531571612579044	0.40706171467412183	1.080666355354498	0.35837887534443585	0.5124090375809786	1.5288837887769335	0.3534354062877804	0.36271228017149326	1.5285953744158396	0.4082516799943742	0.37374803550556	1.525634097141517	0.3304732874786407	0.6142168557804754	1.628604764453662	0.198132442064071	0.41543888883443364	0.6298457993165877	0.15003915914898666	0.44861480436978873	1.094233385115962	0.15524013613713003	0.5056138598566237	1.5296501252314934	0.1880227908584456	0.2953156086534911	1.4823231019960927	0.13534605369749877	0.3571522243960153	1.5162774165674973	0.16697564423015926	0.5803004474655616	1.5860594015920693	0.28382768929655017	0.3106937134947636	0.1584322423150945	0.2664254622017243	0.25016228769881316	-0.07992771692311461	0.2613435405856452	0.24894302410984287	0.06705545075695597	0.40667801693393996	0.325931556824719	0.20102922820298522	0.40713334687157826	0.3150952766327905	0.40192206137365527	0.18278198716642016	0.27581991424828023	0.4015111183674516	0.10186684534233847	0.3005060062207969	0.33275309552858057	0.09399167952398887	0.2820359286405046	0.3599428971697096	0.1004874745317039	0.3195972172437242	0.3938585354221117	0.1366110857715792	0.34795396409987095	0.18518810022915214	0.13954409238799897	0.29456402491092515	0.398758758456913	0.2906021305558941	0.23443822573721537	0.3658518266676619	0.38257703839422474	0.24859811491064365	0.31262608225713806	0.4208837387215877	0.22985271708600838	0.3222424043792893	0.4084285611350425	0.2546408249306128	0.3994885247101405
134	2.7916666666666665	0.3776803239933542	0.45753861317808825	0.6429641783465383	0.3506886924568253	0.39436993581074925	1.075663081370448	0.3590017440505757	0.509827287558137	1.5323935649063052	0.35345381532329456	0.3621819986243172	1.5283596233338923	0.40109486045352255	0.3578675748027007	1.5172402503958582	0.33614973549863275	0.5946970961501665	1.612401141286834	0.197554162440848	0.4156795833306637	0.6332662359861794	0.14875339206071803	0.43378346026975306	1.0928748121947127	0.15534249722830432	0.5051133227735547	1.5296409667852295	0.18751273810621746	0.2942308746136339	1.4904942022114906	0.13542304530262717	0.3572735585531368	1.5165340278151984	0.1675868335375131	0.5783359152761534	1.589611990635385	0.279876159679654	0.30870279249747623	0.15851379889853703	0.2665361707410657	0.2506710286149752	-0.07330236615633179	0.2612308596716451	0.24934313771441977	0.0671981348421946	0.40657333394902834	0.3253230722644376	0.20503099107976833	0.38212027807264076	0.28625961225048624	0.42083199247702124	0.1764382969077206	0.2876111780079005	0.4123072477972651	0.09635687312373767	0.28309133577503076	0.3398960114819477	0.08860455270559371	0.2653815352064107	0.3678273790995873	0.10003014148341952	0.3167453530673204	0.4150110893159079	0.13303158225995035	0.3459743883705898	0.19219166288561065	0.1402723651744682	0.2946532466176862	0.40691894457011113	0.28497819024893695	0.24721539225249506	0.3761681062330349	0.38269481299499125	0.24739503272909394	0.3158543976469192	0.4210224413398427	0.2298316402010781	0.32008740273222924	0.40806873625947093	0.2569753102394951	0.4072897226774666
135	2.8125	0.37774165576414315	0.4576243113523875	0.6429214674166034	0.3506824800992627	0.39433064331715895	1.0756876434255365	0.3590800023865825	0.5102407762181381	1.5326326822852643	0.345828252097755	0.36545785763057514	1.5311166090237804	0.4009680368717715	0.3578496825632765	1.5174367919481633	0.33718116205394427	0.5973227715993624	1.618815385268977	0.19556796215422767	0.43098419827834883	0.637395580281637	0.1487390810490849	0.4337127740223152	1.0930658210573256	0.15528919657580403	0.505225298697049	1.529541670897479	0.1880676601680885	0.29170579913251804	1.4808781752279447	0.13521172637958312	0.35728494769230734	1.5164281319279502	0.16762828761171256	0.5781570022261668	1.5894565519327846	0.27383644324251366	0.295162294281959	0.1574399285826663	0.26267066725508265	0.247848572067368	-0.06996470215810986	0.2594339399416828	0.2386265621968159	0.06651374382187006	0.4065994752840791	0.3245358687626386	0.20855355121586244	0.39321055618186856	0.2780386386774341	0.4033117039067464	0.18043229790830193	0.26412319148579366	0.40778990048411023	0.10375255860125839	0.3307811390128976	0.3564064570804062	0.08815742624592815	0.2645394251346555	0.36178394056836854	0.09883874960728052	0.31187407012633395	0.41016767889285716	0.1329028256385734	0.3460578256183662	0.1924422216127087	0.14572516210978878	0.2947481496309724	0.4077468277898553	0.28848607499107326	0.22485085401501345	0.36834833664356914	0.3820756826686518	0.24864938296220157	0.3125278579327404	0.41003410110406713	0.22960351460350817	0.32294598510490213	0.40823118879723985	0.25603426116390376	0.4069975293065228
136	2.8333333333333335	0.38248758801715294	0.45924634523980123	0.6389710713364185	0.3514587694896324	0.39393488777006125	1.0709684411629328	0.3595288836691147	0.5116924731500274	1.5235748171206411	0.3457293089640216	0.36509077373804155	1.5310526467429475	0.40089735249746894	0.3573318547278373	1.5171332042934005	0.33626242065467377	0.5958043283652765	1.6117758831106865	0.20313953428090173	0.4185809178226813	0.6348862284146781	0.1497256197208259	0.43365244909041845	1.088160480324576	0.15522441154351874	0.505348265421054	1.5295027833847663	0.18816754946610956	0.2912985953259528	1.480677438801637	0.13526465855058778	0.3569516160461642	1.5162596011239828	0.16757460187837733	0.5780877867020274	1.5894885710822648	0.2739882654551426	0.29436749837876836	0.16105463205642073	0.26271163493846666	0.2485960054934707	-0.06633577028332022	0.25961457124130216	0.2374375150265765	0.0701426486116684	0.4042873227695247	0.31297385932681177	0.21100152664247945	0.3848457050049964	0.28143161576618025	0.4062063306522842	0.18063240911860673	0.2651872589666348	0.3998351665257359	0.10161725686577545	0.32247948207211236	0.3552402168819546	0.09181832810187632	0.29256206224032744	0.3721781568640412	0.09973564491681641	0.315131697263859	0.414881234195158	0.13267243425492062	0.34608554009769305	0.19306671667853997	0.14474863001944288	0.2975198014477552	0.4119975240307544	0.28510364776428454	0.24807019000079575	0.36897651119670405	0.38254544897660747	0.2475000342203947	0.31236110067377165	0.40977216647559095	0.23088881256722293	0.3167896315730156	0.4028116117561602	0.26667884629054567	0.39415847132391346
137	2.8541666666666665	0.3826572545745691	0.4594105778961665	0.6388795077844438	0.3506550547303224	0.39382624306615294	1.075092332474945	0.3574721043841283	0.4951420926090573	1.5196203255512908	0.3456827320725195	0.36506968174736737	1.5307289005432632	0.4008473392397959	0.35712760737822935	1.517002842791827	0.3370876697906076	0.5976298630033617	1.6182294079132664	0.20930205979279237	0.40552125408406864	0.6309242390100683	0.14758105856616752	0.41831899378378035	1.0779894951228168	0.15523312268468906	0.5053857665048687	1.5296545562765602	0.188127187581089	0.290938097255345	1.4805486271842316	0.1352548243889627	0.3570683341668871	1.5165199931217863	0.1654559707405135	0.5637641182865134	1.5816551071383929	0.2736704029372229	0.2941033359886077	0.16436589183673303	0.26276816227901856	0.24959751969769456	-0.06274493787830265	0.25757771662278367	0.22604633340972802	0.0725623588177736	0.4016327974868951	0.30415561060109136	0.2168735342638414	0.3692196536273072	0.224413126146481	0.37312959180218197	0.1791393556140945	0.2549275353924597	0.3976050902398435	0.10563763979069947	0.3259354346553223	0.34887239777892587	0.08869260603538709	0.2651971258233752	0.36769937813549125	0.10340083268579722	0.3189317188180475	0.40837067604039357	0.13100545105299022	0.33371206842268614	0.19533561277709074	0.14106904332008263	0.2963658915763374	0.413240448347859	0.28114792856100507	0.24634099410771196	0.35786054034234693	0.37254561118176666	0.25459157323602855	0.2924994284262245	0.3946566666552105	0.25032589544670775	0.3083694610753581	0.4015005605932795	0.25910257381568114	0.3656873174133032
138	2.875	0.38346109518797883	0.4601228223654177	0.6475885242453743	0.35067029414184514	0.3937776121733033	1.0752866757393822	0.3573707336522609	0.49503007769968316	1.5196104893810287	0.343445712626876	0.35275452689479597	1.5239911452464894	0.3951478537545505	0.3718778243285759	1.5261420140560125	0.3370619148790814	0.5978025299353404	1.6183576150506471	0.20976337077368865	0.4060371712277398	0.6399077751400324	0.1471840580007852	0.42009249136146876	1.0875114830605286	0.1551398027669031	0.5056252375935579	1.529641868394734	0.18811121365233202	0.2909332574308943	1.480586084672118	0.13522333816043636	0.3572858991157675	1.5167757932752217	0.16536033955009471	0.5641004032105681	1.581528133436758	0.27358627899395316	0.2948871956947488	0.1713465256977495	0.2627713574453181	0.25042133012231155	-0.0594426590752113	0.2573529714956755	0.22681425923956916	0.0791744260558429	0.3992720923696767	0.29420874116735674	0.21899650947952393	0.36211822928834503	0.20770467980065374	0.37666973458287406	0.18038242412347577	0.24685885554216905	0.3954398694290595	0.11004012606761458	0.32861564427824436	0.335316068187135	0.09213608615011323	0.2743047200054503	0.35822204236439975	0.10706602045477802	0.322731740372236	0.4018601178856292	0.1312285061857961	0.3347632362662186	0.1989413567047544	0.13532688738992804	0.3095673965584834	0.4162281281094659	0.27894841602107595	0.23398783739358386	0.3627909521770679	0.36730514295814937	0.23112369139746186	0.2891424164074575	0.39044221936115103	0.24985690314851278	0.3093830558863074	0.40024395718815475	0.2612733593637667	0.35536344221970156
